<?xml version="1.0" standalone="no"?>
<!DOCTYPE svg PUBLIC "-//W3C//DTD SVG 20010904//EN"
 "http://www.w3.org/TR/2001/REC-SVG-20010904/DTD/svg10.dtd">
<svg version="1.0" xmlns="http://www.w3.org/2000/svg"
 width="4000.000000pt" height="4000.000000pt" viewBox="0 0 4000.000000 4000.000000"
 preserveAspectRatio="xMidYMid meet">

<g transform="translate(0.000000,4000.000000) scale(0.100000,-0.100000)"
fill="#000000" stroke="none">
<path d="M18365 35254 c-22 -2 -1361 -6 -2975 -8 -1614 -2 -3401 -10 -3970
-17 -569 -7 -1186 -11 -1370 -10 -346 3 -459 -4 -591 -37 -160 -40 -170 -55
-185 -257 -16 -218 -11 -29918 5 -29994 6 -30 19 -63 29 -74 28 -32 87 -56
159 -67 37 -5 93 -14 123 -20 63 -12 3568 -17 3915 -5 116 3 2352 9 4970 11
2618 3 4787 6 4820 8 33 2 240 8 460 15 220 6 436 13 480 16 44 3 123 8 175
10 52 3 105 7 118 10 12 2 96 9 185 15 166 11 290 24 387 40 30 5 88 11 128
14 95 7 187 22 292 46 47 11 139 28 205 39 66 11 134 25 150 31 17 6 62 13
102 16 40 2 91 10 115 18 24 8 85 22 137 31 59 10 115 27 150 45 31 16 72 33
91 36 34 7 90 31 100 43 12 16 58 39 90 45 19 4 72 18 116 32 45 13 98 24 118
24 20 0 55 9 77 21 23 11 74 27 116 35 41 8 102 28 136 44 47 23 90 34 172 45
102 13 257 55 332 90 17 8 35 15 40 15 5 0 39 18 74 39 36 22 97 49 135 61 86
27 110 38 154 71 19 15 65 37 103 49 37 12 89 38 115 59 60 48 75 56 139 70
42 10 62 23 113 75 50 51 88 77 194 131 99 51 138 76 154 101 12 18 48 52 79
75 32 24 82 66 111 95 29 29 77 64 105 78 66 31 83 50 105 117 l17 54 63 16
c47 12 75 27 105 56 23 21 69 57 102 78 33 21 84 63 113 94 30 30 77 67 105
82 38 19 57 36 70 63 12 25 30 42 52 52 19 8 45 29 57 48 12 18 35 42 50 52
16 11 61 57 101 104 40 47 100 110 133 140 34 30 72 73 84 94 28 48 148 176
165 176 19 0 131 131 177 207 23 37 51 74 62 82 12 8 65 59 118 114 102 104
109 116 112 213 1 46 19 68 56 69 8 0 24 18 34 40 11 22 28 47 39 55 63 50 75
63 92 102 10 24 34 64 52 89 18 26 33 51 33 56 0 4 16 33 36 63 42 64 74 124
74 140 0 6 18 37 40 68 27 40 42 75 49 116 6 33 12 60 13 61 46 25 64 46 90
103 16 37 36 82 44 100 9 18 22 55 30 82 8 27 51 119 95 204 84 163 92 182
114 285 8 35 29 89 46 119 23 41 34 77 40 129 6 54 18 92 48 150 27 53 46 111
61 183 22 108 30 135 61 206 17 39 28 113 44 289 8 90 11 99 50 165 l33 55 7
213 c3 117 11 227 16 245 11 38 28 207 35 367 3 63 8 163 12 221 4 58 5 202 4
320 -2 118 -3 243 -3 279 1 94 -19 328 -32 375 -6 22 -12 87 -12 145 -3 178
-17 373 -29 405 -13 34 -13 40 -2 108 7 38 4 61 -12 110 -12 34 -35 121 -52
192 -17 72 -35 148 -41 170 -6 22 -13 62 -16 90 -3 27 -12 66 -20 85 -23 54
-42 137 -52 226 -6 52 -19 100 -35 131 -13 27 -34 81 -46 119 -12 38 -24 76
-27 84 -3 8 -6 40 -7 70 -1 47 -6 63 -33 97 -20 25 -37 61 -44 94 -12 58 -24
82 -63 124 -23 25 -46 110 -37 140 9 32 -13 100 -43 130 -39 39 -53 72 -61
145 -4 32 -19 76 -35 105 -15 28 -35 74 -44 104 -9 30 -31 77 -50 105 -19 28
-41 76 -50 107 -9 31 -23 63 -33 70 -9 8 -32 47 -50 88 -19 41 -47 90 -63 108
-16 18 -34 52 -40 75 -17 68 -32 100 -62 133 -15 18 -37 54 -48 80 -11 27 -37
66 -56 88 -20 21 -44 58 -54 81 -11 27 -34 55 -58 72 -28 20 -42 39 -47 60 -3
18 -20 51 -39 75 -18 24 -43 64 -56 89 -12 25 -36 61 -51 81 -16 20 -29 41
-29 46 0 16 -32 49 -63 64 -15 8 -51 50 -80 92 -73 108 -175 229 -220 262 -22
15 -47 46 -58 69 -22 47 -110 155 -138 171 -11 5 -56 49 -101 97 -45 48 -90
90 -99 93 -10 3 -32 26 -50 50 -18 25 -49 53 -68 63 -24 12 -39 28 -47 50 -6
19 -24 41 -40 50 -16 10 -43 29 -59 45 -17 15 -35 27 -41 28 -21 1 -48 8 -53
12 -2 3 -6 20 -8 38 -7 51 -38 72 -102 66 -32 -3 -58 0 -68 7 -15 11 -15 14 1
43 16 27 16 35 5 55 -15 29 -61 58 -91 58 -34 0 -58 18 -87 62 -31 50 -57 74
-101 94 -17 8 -44 28 -60 45 -37 42 -73 59 -127 59 -36 0 -49 5 -68 26 -28 34
-35 40 -93 91 -104 90 -150 124 -185 133 -19 5 -55 25 -80 44 -25 20 -65 40
-93 46 -29 6 -64 23 -84 41 -36 32 -99 64 -143 73 -15 3 -48 21 -75 40 -65 46
-108 67 -234 114 -99 37 -168 72 -267 135 -24 15 -81 38 -129 52 -47 14 -111
40 -142 59 -32 19 -84 42 -117 51 -50 14 -199 64 -280 95 -36 13 -153 51 -166
54 -107 20 -133 49 -143 158 -6 59 -5 73 10 89 9 10 21 19 26 19 6 0 40 20 77
45 36 25 100 56 141 70 141 48 245 98 319 154 92 70 111 81 138 81 41 0 91 32
103 64 21 57 26 61 85 68 71 9 99 26 133 83 20 33 37 48 71 61 25 10 66 37 91
60 26 24 57 49 71 56 90 49 275 182 334 239 39 37 91 83 117 101 115 82 189
143 208 172 18 31 198 213 248 253 12 10 28 29 35 43 7 13 31 37 53 52 24 16
48 43 59 68 10 22 36 53 57 69 21 16 51 46 67 67 16 21 62 74 102 116 124 129
181 195 206 240 13 24 37 57 53 73 16 17 39 53 51 80 14 31 47 74 89 115 55
53 70 75 85 123 12 39 31 71 59 100 23 23 48 58 56 77 7 19 24 49 36 65 12 17
37 62 56 101 19 39 49 89 65 110 34 43 61 113 65 169 2 28 10 44 34 64 17 14
44 51 59 81 15 30 36 66 46 79 11 13 28 53 39 89 11 36 32 80 45 98 29 38 39
62 66 163 11 41 35 102 54 135 18 34 40 94 49 134 9 40 27 90 40 110 13 20 29
66 36 102 6 36 21 80 32 97 11 18 24 62 29 98 5 37 16 80 24 96 9 16 20 55 26
87 6 31 22 81 35 110 14 29 27 76 30 105 3 29 19 104 34 167 16 63 32 147 34
185 3 47 14 89 30 125 17 36 26 73 26 105 0 28 5 66 10 85 6 19 15 73 20 120
6 47 15 110 20 140 11 65 17 103 26 185 3 33 14 101 24 150 24 113 29 175 36
405 2 102 9 282 14 400 7 143 7 302 0 475 -15 351 -18 396 -35 511 -8 54 -22
159 -30 231 -9 73 -25 161 -35 194 -11 34 -23 96 -26 138 -3 42 -16 108 -29
146 -27 81 -44 171 -44 235 0 25 -11 81 -25 125 -31 98 -80 261 -100 335 -9
30 -25 109 -36 175 -15 88 -27 130 -46 158 -15 22 -34 77 -45 130 -14 62 -32
110 -56 151 -27 43 -40 80 -49 137 -7 44 -21 91 -32 106 -11 16 -32 69 -48
118 -15 50 -40 113 -56 141 -15 27 -37 77 -48 110 -11 32 -36 85 -55 117 -19
32 -35 66 -35 76 0 39 -24 88 -57 118 -26 24 -38 45 -44 78 -12 66 -37 113
-71 133 -16 9 -31 28 -34 42 -14 73 -28 101 -64 140 -28 30 -42 55 -47 83 -4
25 -18 54 -39 76 -18 20 -43 61 -57 91 -14 30 -38 67 -55 82 -16 15 -32 42
-36 61 -3 18 -20 47 -37 63 -17 16 -41 52 -54 79 -12 28 -36 67 -54 89 -17 21
-31 43 -31 48 0 5 -24 33 -53 61 -30 29 -59 66 -66 84 -7 17 -35 53 -63 79
-28 26 -59 69 -72 98 -15 33 -45 71 -86 109 -34 32 -82 84 -105 115 -43 58
-50 64 -117 116 -20 15 -48 46 -62 69 -14 23 -59 76 -102 117 -46 45 -86 95
-100 125 -13 28 -34 61 -47 75 -31 35 -122 110 -182 150 -27 18 -72 54 -100
80 -27 25 -75 64 -105 86 -30 23 -62 49 -70 59 -8 9 -39 34 -70 55 -31 21 -62
45 -69 54 -8 9 -35 31 -60 48 -25 17 -52 39 -59 49 -28 41 -231 179 -249 170
-18 -8 -50 6 -81 38 -23 24 -55 44 -80 51 -25 6 -46 20 -53 33 -18 32 -37 45
-97 63 -32 9 -66 29 -87 49 -18 19 -46 37 -62 41 -46 12 -96 37 -156 78 -43
30 -69 40 -109 44 -39 3 -61 11 -83 31 -47 43 -170 112 -217 122 -24 5 -88 32
-143 59 -55 27 -143 61 -195 75 -90 25 -123 38 -194 77 -17 9 -47 20 -66 24
-33 6 -60 18 -136 58 -16 8 -91 25 -165 37 -90 14 -157 31 -203 51 -55 24 -93
32 -175 39 -233 19 -389 39 -444 58 -97 34 -249 42 -1062 56 -326 6 -5495 14
-5560 9z m1118 -3000 c92 -3 203 -14 257 -25 52 -10 115 -20 140 -23 25 -2 86
-11 135 -20 50 -8 143 -20 207 -26 127 -12 149 -17 220 -49 26 -12 112 -33
190 -47 119 -20 158 -32 233 -68 155 -75 228 -105 295 -122 40 -9 86 -30 120
-53 30 -21 77 -46 104 -55 58 -20 88 -35 101 -52 6 -7 41 -29 79 -48 38 -20
80 -45 95 -55 14 -10 53 -32 87 -49 34 -17 75 -42 91 -56 17 -14 50 -34 74
-44 24 -11 55 -30 69 -44 14 -14 47 -38 74 -53 26 -16 82 -62 122 -102 45 -45
93 -82 122 -95 49 -22 126 -87 177 -150 42 -52 90 -85 135 -93 45 -8 99 -60
163 -160 25 -38 55 -77 67 -85 37 -25 60 -52 100 -120 25 -42 52 -73 77 -88
34 -21 68 -63 127 -154 10 -16 36 -38 57 -49 36 -18 39 -22 39 -63 0 -49 37
-106 70 -106 23 0 39 -20 55 -67 8 -26 26 -47 54 -67 33 -22 42 -34 41 -55 -5
-66 1 -84 37 -120 20 -20 49 -61 65 -91 16 -30 40 -70 53 -89 14 -19 28 -52
31 -73 6 -35 19 -57 83 -138 11 -14 30 -61 41 -105 15 -56 30 -89 51 -110 16
-17 29 -41 29 -54 0 -40 32 -166 46 -182 8 -8 14 -21 14 -27 0 -7 4 -12 9 -12
9 0 34 -75 51 -153 6 -27 17 -65 25 -84 8 -20 15 -46 15 -58 0 -12 7 -42 16
-66 14 -40 28 -100 40 -169 6 -37 44 -285 54 -360 6 -36 19 -105 30 -155 18
-85 19 -118 15 -580 -5 -504 -6 -523 -54 -795 -11 -63 -29 -185 -40 -270 -18
-134 -46 -313 -54 -345 -2 -5 -8 -20 -15 -32 -6 -11 -23 -64 -36 -117 -14 -56
-42 -129 -66 -172 -22 -42 -49 -106 -59 -143 -11 -36 -26 -84 -35 -106 -8 -22
-15 -50 -16 -63 0 -32 -16 -59 -61 -109 -33 -36 -79 -144 -79 -186 0 -5 -14
-22 -30 -37 -17 -15 -44 -56 -61 -91 -17 -35 -41 -75 -54 -89 -13 -14 -33 -50
-45 -80 -12 -30 -36 -71 -55 -90 -18 -19 -39 -54 -46 -78 -10 -33 -23 -51 -55
-73 -37 -25 -46 -38 -60 -89 -11 -39 -24 -65 -40 -75 -13 -8 -32 -32 -43 -53
-13 -26 -30 -41 -55 -50 -30 -11 -36 -19 -41 -50 -8 -50 -22 -82 -36 -82 -24
0 -79 -33 -96 -58 -9 -15 -18 -45 -18 -66 0 -41 -2 -43 -69 -73 -22 -10 -47
-31 -56 -48 -10 -19 -37 -40 -71 -56 -37 -18 -60 -37 -72 -60 -10 -19 -43 -52
-75 -74 -76 -54 -148 -121 -173 -162 -13 -21 -38 -41 -68 -54 -33 -14 -55 -32
-72 -59 -13 -22 -36 -44 -50 -50 -14 -6 -45 -31 -69 -56 -23 -24 -47 -44 -53
-44 -7 0 -29 -5 -50 -11 -30 -8 -42 -18 -53 -45 -8 -19 -12 -39 -9 -44 4 -6 2
-10 -4 -10 -6 0 -13 -11 -17 -24 -4 -17 -11 -22 -25 -19 -10 3 -19 11 -19 18
0 30 -77 18 -114 -17 -24 -23 -50 -43 -101 -78 -27 -19 -65 -48 -85 -66 -29
-26 -46 -32 -97 -37 -49 -4 -71 -11 -100 -35 -46 -36 -134 -81 -228 -117 -38
-15 -83 -35 -100 -45 -19 -11 -37 -15 -50 -10 -33 12 -70 -5 -125 -57 -65 -60
-95 -110 -116 -193 -14 -56 -17 -170 -25 -810 -11 -927 -2 -3247 13 -3420 11
-136 42 -251 84 -311 20 -29 37 -40 83 -53 31 -9 64 -16 73 -16 8 0 41 -18 74
-39 39 -27 87 -47 141 -61 45 -11 102 -33 125 -49 24 -15 58 -33 76 -39 18 -6
81 -39 140 -73 59 -34 127 -73 152 -87 25 -14 59 -37 75 -52 34 -31 76 -54
118 -64 17 -4 36 -20 47 -39 19 -31 42 -47 128 -82 23 -10 42 -22 42 -26 0
-14 61 -79 75 -79 7 0 29 -15 48 -34 20 -19 50 -37 67 -41 19 -4 42 -22 63
-49 17 -23 52 -60 76 -81 24 -22 74 -69 110 -105 91 -89 299 -284 338 -315 18
-15 32 -29 31 -33 -7 -22 28 -76 90 -139 39 -40 83 -90 99 -110 15 -21 67 -81
115 -134 70 -76 89 -104 94 -135 6 -43 44 -99 72 -108 21 -7 36 -31 63 -99 22
-55 43 -92 125 -215 28 -42 58 -97 68 -122 10 -25 31 -68 46 -97 16 -28 36
-80 46 -115 19 -68 41 -123 73 -178 49 -85 103 -247 122 -367 10 -67 33 -159
50 -205 45 -121 58 -246 59 -527 0 -133 2 -246 5 -251 6 -10 -12 -1183 -21
-1310 -4 -58 -16 -117 -39 -185 -19 -55 -44 -154 -55 -220 -12 -66 -31 -139
-41 -163 -11 -23 -24 -67 -30 -98 -6 -30 -17 -74 -25 -97 -11 -32 -13 -63 -8
-129 l7 -87 -43 -38 c-50 -45 -85 -103 -95 -157 -3 -22 -17 -53 -30 -70 -36
-49 -52 -87 -64 -149 -7 -41 -19 -66 -41 -90 -39 -40 -54 -69 -69 -130 -6 -27
-16 -54 -21 -60 -85 -105 -128 -176 -159 -262 -6 -17 -24 -39 -40 -50 -34 -22
-71 -90 -71 -129 0 -14 -4 -26 -10 -26 -14 0 -70 -57 -70 -72 0 -7 -16 -31
-35 -52 -20 -23 -35 -50 -35 -64 0 -29 -25 -51 -58 -52 -33 0 -79 -35 -86 -66
-5 -17 0 -36 14 -59 20 -32 18 -64 -4 -66 -6 0 -37 0 -68 1 -50 1 -59 -2 -72
-23 -9 -13 -20 -44 -25 -70 -11 -62 -26 -79 -69 -75 -26 2 -39 -3 -53 -21 -10
-13 -19 -31 -19 -41 0 -19 -23 -43 -33 -34 -13 13 -95 -37 -107 -66 -6 -15
-32 -46 -58 -67 -25 -21 -55 -49 -67 -62 -11 -13 -56 -47 -100 -76 -44 -29
-92 -68 -107 -87 -14 -19 -53 -49 -87 -66 -33 -18 -83 -50 -110 -72 -28 -22
-92 -67 -143 -99 -51 -33 -113 -74 -138 -92 -25 -18 -62 -39 -84 -46 -63 -22
-88 -39 -140 -92 -27 -27 -53 -48 -58 -45 -4 3 -8 1 -8 -4 0 -12 -37 -27 -119
-47 -35 -9 -93 -31 -130 -50 -37 -19 -99 -41 -138 -49 -40 -9 -92 -29 -121
-47 -28 -17 -73 -35 -99 -40 -26 -5 -74 -25 -106 -45 -50 -31 -68 -36 -137
-40 -44 -2 -108 -13 -142 -25 -35 -11 -103 -24 -153 -29 -49 -5 -114 -19 -142
-30 -29 -11 -90 -24 -135 -29 -46 -6 -97 -14 -114 -19 -17 -5 -77 -13 -135
-16 -57 -4 -131 -10 -164 -14 -103 -12 -702 -3 -782 12 -17 4 -91 8 -318 21
-123 7 -280 32 -320 50 -17 8 -53 16 -80 20 -93 11 -120 17 -176 40 -31 13
-87 27 -125 30 -112 10 -123 13 -263 60 -84 29 -148 57 -172 77 -40 32 -91 40
-156 24 -30 -8 -33 -6 -52 32 -28 54 -53 70 -123 78 -49 6 -67 13 -106 46 -26
22 -72 50 -103 62 -57 23 -91 43 -222 128 -51 33 -87 48 -122 53 -55 7 -70 16
-91 57 -9 18 -34 37 -67 52 -29 13 -65 36 -81 50 -16 14 -32 26 -36 26 -4 0
-33 25 -65 55 -32 30 -64 55 -71 55 -6 0 -21 20 -33 44 -11 25 -31 52 -43 60
-25 18 -78 22 -78 6 0 -19 -39 -10 -54 12 -14 19 -14 23 1 33 23 17 19 72 -8
101 -19 20 -32 24 -81 24 -75 0 -103 18 -112 71 -5 29 -13 42 -29 48 -12 5
-25 7 -28 5 -14 -8 -32 28 -35 68 -3 37 -12 49 -109 142 -58 56 -105 107 -105
112 0 6 -22 33 -50 61 -27 28 -50 60 -50 70 0 11 -12 35 -26 54 -14 19 -34 50
-44 69 -10 19 -55 78 -99 130 -44 52 -94 123 -110 157 -17 34 -46 79 -65 100
-19 21 -42 59 -52 83 -10 25 -28 60 -41 79 -13 19 -23 40 -23 48 0 7 -9 32
-21 54 -18 37 -23 41 -49 35 -43 -8 -62 23 -54 90 7 57 -6 101 -49 172 -12 20
-28 55 -36 77 -7 22 -35 88 -62 147 -27 59 -49 114 -49 123 0 9 -18 54 -39 98
-29 60 -43 105 -51 167 -15 107 -21 138 -60 285 -17 66 -37 163 -45 215 -8 52
-24 132 -35 177 -11 45 -24 131 -30 190 -6 59 -15 151 -21 203 -5 52 -9 120
-8 150 1 30 -2 172 -6 315 -6 181 -5 280 3 325 7 36 14 101 17 145 7 108 11
132 46 259 16 60 39 164 50 230 11 67 34 164 51 216 16 52 34 120 39 150 17
105 90 310 124 350 8 8 39 74 70 145 59 135 66 154 84 220 6 22 26 58 45 79
21 23 44 66 57 104 16 48 33 75 62 102 32 30 41 46 48 90 6 40 16 61 43 88 26
25 37 47 42 81 5 35 15 54 45 82 20 20 46 54 58 75 11 22 36 57 56 79 20 22
46 60 59 85 44 84 155 216 312 374 28 28 54 59 57 69 4 9 22 27 41 38 19 11
50 39 69 62 19 24 56 54 81 67 45 23 182 150 296 276 37 40 74 69 111 86 35
16 67 41 88 67 21 27 56 53 95 71 113 55 171 89 206 120 19 18 51 39 70 47 87
37 198 99 232 129 21 18 50 36 65 40 57 12 84 24 130 56 27 18 53 34 58 35 6
1 42 9 80 18 39 9 94 30 125 49 30 19 80 41 110 50 127 37 173 89 184 206 4
35 11 105 16 155 20 187 36 3385 20 3835 -12 306 -30 492 -53 537 -25 47 -92
89 -157 98 -14 2 -67 15 -118 28 -76 21 -100 32 -136 65 -25 23 -64 46 -97 57
-30 9 -71 29 -93 43 -40 28 -100 52 -127 52 -9 0 -44 18 -77 40 -33 22 -86 49
-118 60 -32 11 -65 26 -73 34 -9 8 -45 27 -81 43 -36 17 -78 45 -95 64 -16 19
-47 45 -68 57 -53 31 -111 77 -172 139 -28 28 -68 58 -87 66 -20 8 -51 35 -69
60 -19 25 -52 56 -74 71 -22 14 -62 46 -90 71 -27 25 -75 60 -106 77 -35 20
-61 43 -69 61 -7 16 -38 57 -70 91 -31 33 -65 72 -76 86 -10 14 -40 45 -65 70
-25 25 -59 71 -75 104 -16 32 -41 68 -56 79 -16 12 -28 26 -28 31 0 6 -22 36
-48 67 -46 54 -96 116 -195 243 -27 33 -62 86 -77 117 -16 31 -44 72 -62 91
-19 19 -44 61 -56 94 -12 33 -33 71 -47 84 -14 13 -25 31 -25 40 0 9 -20 58
-45 108 -25 50 -45 96 -45 102 0 6 -25 35 -55 65 -30 31 -55 63 -55 73 -2 73
-9 124 -19 136 -6 7 -23 42 -36 77 -14 35 -36 75 -50 89 -19 20 -35 66 -69
202 -25 97 -52 226 -61 287 -9 61 -30 148 -47 194 -46 127 -49 138 -42 197 4
38 0 85 -14 150 -11 52 -23 122 -27 155 -3 33 -8 74 -10 90 -13 91 -22 545
-11 563 2 4 6 85 7 180 1 95 9 208 16 250 7 42 18 118 24 167 13 106 20 143
47 250 12 44 23 96 25 115 2 19 12 53 21 74 27 64 45 147 52 236 6 72 16 108
66 230 61 150 65 159 110 232 18 28 30 65 34 103 4 40 16 76 36 108 15 27 37
69 47 95 10 26 52 99 93 163 42 64 83 129 91 145 8 16 34 48 57 72 l43 43 -6
65 c-6 75 2 88 63 104 32 9 40 16 45 43 15 72 26 95 55 107 17 7 35 26 45 48
27 62 31 67 62 81 16 7 37 25 46 40 9 15 37 42 64 60 26 18 66 58 88 88 22 30
59 69 82 85 46 33 85 103 87 154 1 24 5 30 18 26 38 -9 69 9 99 58 22 35 40
52 65 60 23 8 44 26 62 53 15 23 36 49 47 57 11 8 63 58 116 112 58 60 104 98
116 98 27 0 196 122 323 232 19 17 60 42 89 56 30 14 73 44 95 67 23 23 79 61
125 85 46 24 102 63 125 85 28 29 59 48 95 59 30 10 68 28 85 41 30 22 48 28
126 40 19 3 71 22 115 42 44 20 122 51 173 69 52 18 110 44 130 58 28 19 68
30 162 46 69 12 170 32 225 45 55 13 127 29 160 36 33 7 62 13 65 14 3 1 43 5
90 9 47 4 117 14 155 21 39 8 140 19 225 24 402 28 459 33 520 46 77 18 120
23 138 18 8 -1 86 -6 175 -9z m-4533 -1324 c0 -5 -4 -10 -10 -10 -5 0 -10 5
-10 10 0 6 5 10 10 10 6 0 10 -4 10 -10z m110 -189 c0 -22 -16 -36 -24 -22 -8
12 3 41 15 41 5 0 9 -9 9 -19z m7199 -7745 c9 -11 8 -18 -5 -31 -14 -14 -19
-14 -31 -2 -15 15 -8 47 12 47 7 0 18 -6 24 -14z m-144 -166 c9 -15 -14 -40
-37 -40 -23 0 -36 29 -17 41 19 12 46 11 54 -1z m5405 -1645 c0 -16 -27 -32
-37 -22 -3 4 -3 13 0 22 8 20 37 20 37 0z m1140 -1831 c0 -6 -7 -14 -15 -18
-10 -3 -15 1 -15 13 0 10 7 18 15 18 8 0 15 -6 15 -13z m2394 -2400 c25 -10
19 -34 -9 -34 -18 0 -25 5 -25 20 0 21 8 24 34 14z m-7200 -5950 c11 -29 6
-44 -14 -44 -26 0 -48 39 -29 51 21 13 36 11 43 -7z m1591 -344 c0 -31 -3 -35
-27 -38 -22 -3 -29 2 -34 22 -8 32 12 58 40 54 17 -2 21 -10 21 -38z m-2065
-1280 c0 -5 -4 -10 -9 -10 -6 0 -13 5 -16 10 -3 6 1 10 9 10 9 0 16 -4 16 -10z
m-7786 -196 c4 -11 0 -15 -16 -12 -12 2 -23 9 -26 16 -6 18 35 15 42 -4z
m15345 -613 c21 -13 -4 -41 -35 -41 -26 0 -31 19 -12 38 14 14 28 15 47 3z
m-66 -385 c-14 -25 -37 -46 -50 -46 -20 0 -16 37 8 61 16 16 23 18 35 9 7 -7
11 -17 7 -24z m-6583 -1031 c0 -27 -24 -45 -51 -38 -25 7 -26 58 -2 72 25 13
53 -5 53 -34z m-122 -712 c-2 -10 -10 -18 -18 -18 -8 0 -16 8 -18 18 -2 12 3
17 18 17 15 0 20 -5 18 -17z"/>
<path d="M19179 29536 c-2 -2 -44 -7 -94 -11 -177 -12 -210 -16 -240 -25 -16
-5 -64 -14 -106 -19 -64 -9 -98 -22 -203 -76 -70 -36 -138 -65 -152 -65 -37 0
-85 -23 -121 -59 -19 -18 -43 -31 -58 -31 -40 0 -87 -24 -123 -64 -19 -20 -43
-36 -56 -36 -34 0 -203 -115 -221 -151 -11 -20 -33 -38 -66 -52 -26 -12 -69
-40 -95 -62 -83 -72 -235 -229 -261 -270 -14 -22 -42 -58 -62 -80 -20 -22 -43
-56 -50 -75 -8 -19 -31 -53 -52 -75 -21 -22 -45 -60 -54 -85 -9 -25 -28 -61
-44 -80 -37 -47 -55 -83 -76 -155 -9 -33 -29 -89 -45 -125 -16 -37 -33 -101
-39 -150 -6 -47 -13 -98 -16 -115 -15 -92 -38 -216 -47 -255 -6 -25 -12 -121
-15 -215 -4 -147 -2 -184 17 -270 11 -55 28 -140 36 -190 9 -49 22 -119 30
-155 15 -70 103 -282 140 -340 12 -19 25 -51 29 -70 13 -64 55 -143 100 -191
25 -27 45 -52 45 -56 0 -5 16 -25 35 -46 19 -20 45 -58 59 -84 30 -57 63 -93
179 -193 48 -41 96 -89 106 -106 17 -28 49 -56 165 -142 55 -41 129 -70 191
-75 52 -3 62 -8 80 -33 59 -85 132 -129 296 -178 63 -18 144 -45 180 -59 94
-36 137 -44 374 -71 181 -22 313 -22 505 -2 186 19 215 25 317 67 39 16 89 31
110 34 81 10 133 27 152 51 10 13 21 20 25 17 3 -3 6 -1 6 5 0 6 19 16 43 22
77 20 125 41 170 75 25 19 71 46 103 60 33 14 75 41 94 59 53 51 145 115 194
136 34 14 53 32 79 73 19 30 57 72 83 93 26 22 59 51 74 66 68 72 90 95 112
114 13 12 29 35 37 50 46 102 108 204 136 226 24 19 55 99 55 143 0 11 18 41
40 65 23 25 45 62 50 85 6 22 19 59 30 82 11 24 33 99 50 169 16 69 44 157 62
197 31 72 31 72 40 310 10 319 3 364 -126 770 -14 44 -29 84 -34 90 -6 7 -13
28 -16 47 -12 60 -28 94 -66 136 -25 27 -39 54 -44 83 -7 47 -36 111 -59 130
-8 6 -36 55 -63 108 -27 55 -65 114 -88 137 -23 23 -97 95 -164 160 -68 66
-132 136 -142 156 -13 26 -36 46 -77 68 -32 17 -69 47 -83 66 -32 44 -77 60
-145 51 -41 -5 -56 -3 -69 10 -19 19 -20 26 -5 22 6 -1 13 6 14 15 3 18 -57
78 -78 78 -7 0 -32 16 -56 35 -24 19 -62 40 -85 46 -23 6 -59 21 -82 34 -22
13 -71 31 -108 39 -38 9 -100 30 -140 48 -60 27 -89 33 -188 39 -64 5 -136 13
-160 19 -41 9 -260 14 -269 6z"/>
<path d="M18970 15408 c-25 -11 -56 -22 -70 -24 -39 -4 -79 -12 -88 -18 -4 -2
-60 -12 -124 -20 -101 -13 -129 -21 -210 -61 -51 -24 -120 -50 -153 -56 -33
-6 -80 -23 -105 -38 -25 -15 -66 -37 -91 -49 -25 -12 -54 -30 -65 -40 -10 -9
-50 -30 -87 -46 -39 -16 -82 -43 -100 -63 -18 -19 -67 -55 -110 -80 -43 -25
-90 -61 -105 -81 -15 -20 -39 -47 -54 -61 -15 -14 -42 -40 -60 -57 -30 -28
-76 -86 -166 -213 -40 -55 -53 -71 -79 -91 -11 -8 -32 -34 -48 -57 -15 -24
-31 -43 -34 -43 -14 0 -49 -75 -56 -119 -5 -31 -19 -56 -46 -86 -45 -49 -59
-81 -59 -140 0 -37 -6 -51 -39 -89 -30 -34 -41 -58 -46 -93 -11 -74 -33 -166
-51 -208 -62 -149 -77 -671 -23 -830 6 -16 14 -65 18 -108 7 -58 17 -94 41
-140 21 -39 35 -85 40 -126 5 -35 17 -76 27 -90 11 -14 30 -57 42 -96 24 -71
116 -256 156 -310 12 -16 30 -52 41 -78 19 -48 102 -137 128 -137 17 0 47 -35
78 -90 14 -25 55 -73 89 -106 35 -34 87 -86 115 -116 31 -34 77 -69 122 -93
40 -20 72 -41 72 -45 0 -4 32 -23 70 -41 39 -19 73 -42 76 -51 5 -17 79 -58
105 -58 8 0 37 -14 65 -31 46 -30 178 -89 198 -89 5 0 39 -16 77 -35 49 -25
86 -36 136 -40 37 -4 104 -17 148 -30 94 -28 182 -37 400 -41 134 -2 172 1
235 18 41 11 111 21 155 23 44 2 88 4 97 4 9 1 46 21 81 45 48 33 90 51 163
70 57 16 112 37 131 52 19 14 66 34 106 45 39 11 95 35 122 54 28 18 75 48
105 67 30 19 78 54 105 77 28 24 72 61 98 84 27 22 65 52 84 66 110 78 425
439 448 511 4 14 15 36 25 50 9 14 25 45 34 70 10 25 23 52 31 60 28 33 96
181 104 227 4 26 17 64 29 83 22 35 51 154 71 285 6 39 18 95 27 125 16 56 24
181 25 419 0 115 -3 136 -35 247 -20 67 -40 159 -45 205 -5 47 -16 103 -24
124 -26 72 -86 206 -97 220 -6 8 -8 38 -4 81 6 74 -1 91 -61 130 -17 11 -25
26 -25 45 0 37 -21 90 -44 108 -10 8 -27 33 -38 55 -11 23 -59 80 -107 128
-159 159 -198 203 -205 225 -10 30 -132 131 -169 139 -17 3 -47 25 -69 49 -21
23 -58 51 -81 61 -23 10 -58 31 -77 46 -19 16 -65 38 -102 49 -46 13 -83 33
-113 59 -25 22 -64 44 -88 50 -23 6 -65 19 -92 30 -76 30 -111 39 -210 56 -49
8 -104 19 -122 25 -17 5 -43 12 -58 15 -14 2 -47 12 -73 21 -61 21 -134 24
-208 9 -70 -14 -80 -13 -160 8 -79 20 -90 20 -144 -6z"/>
</g>
</svg>
